<svg width="956" height="185" viewBox="0 0 956 185" fill="none" xmlns="http://www.w3.org/2000/svg">
<g clip-path="url(#clip0)">
<rect width="956" height="185" fill="#001502"/>
<g filter="url(#filter0_d)">
<path d="M390 144.59V40H437.607C458.994 40 469.688 49.3506 469.688 68.0518C469.688 80.6982 461.362 91.1719 444.712 99.4727L477.891 144.736H453.428L421.567 99.1064V90.2441C440.122 87.0703 449.399 79.8682 449.399 68.6377C449.399 60.9229 445.054 57.0654 436.362 57.0654H409.775V144.59H390Z" fill="#19B38C"/>
<path d="M487.119 144.736V40H533.994C555.381 40 566.074 49.8389 566.074 69.5166C566.074 90.8545 551.45 103.77 522.202 108.262L519.419 90.9766C536.997 87.8027 545.786 80.8447 545.786 70.1025C545.786 61.4111 541.44 57.0654 532.749 57.0654H506.528V144.736H487.119Z" fill="#19B38C"/>
</g>
</g>
<defs>
<filter id="filter0_d" x="324" y="-26" width="316.074" height="244.736" filterUnits="userSpaceOnUse" color-interpolation-filters="sRGB">
<feFlood flood-opacity="0" result="BackgroundImageFix"/>
<feColorMatrix in="SourceAlpha" type="matrix" values="0 0 0 0 0 0 0 0 0 0 0 0 0 0 0 0 0 0 127 0"/>
<feOffset dx="4" dy="4"/>
<feGaussianBlur stdDeviation="35"/>
<feColorMatrix type="matrix" values="0 0 0 0 1 0 0 0 0 1 0 0 0 0 1 0 0 0 0.25 0"/>
<feBlend mode="normal" in2="BackgroundImageFix" result="effect1_dropShadow"/>
<feBlend mode="normal" in="SourceGraphic" in2="effect1_dropShadow" result="shape"/>
</filter>
<clipPath id="clip0">
<rect width="956" height="185" fill="white"/>
</clipPath>
</defs>
</svg>
