<svg width="730" height="185" viewBox="0 0 730 185" fill="none" xmlns="http://www.w3.org/2000/svg">
<g clip-path="url(#clip0)">
<rect width="730" height="185" fill="#001502"/>
<g filter="url(#filter0_d)">
<path d="M277 144.59V40H324.607C345.994 40 356.688 49.3506 356.688 68.0518C356.688 80.6982 348.362 91.1719 331.712 99.4727L364.891 144.736H340.428L308.567 99.1064V90.2441C327.122 87.0703 336.399 79.8682 336.399 68.6377C336.399 60.9229 332.054 57.0654 323.362 57.0654H296.775V144.59H277Z" fill="#19B38C"/>
<path d="M374.119 144.736V40H420.994C442.381 40 453.074 49.8389 453.074 69.5166C453.074 90.8545 438.45 103.77 409.202 108.262L406.419 90.9766C423.997 87.8027 432.786 80.8447 432.786 70.1025C432.786 61.4111 428.44 57.0654 419.749 57.0654H393.528V144.736H374.119Z" fill="#19B38C"/>
</g>
</g>
<defs>
<filter id="filter0_d" x="211" y="-26" width="316.074" height="244.736" filterUnits="userSpaceOnUse" color-interpolation-filters="sRGB">
<feFlood flood-opacity="0" result="BackgroundImageFix"/>
<feColorMatrix in="SourceAlpha" type="matrix" values="0 0 0 0 0 0 0 0 0 0 0 0 0 0 0 0 0 0 127 0"/>
<feOffset dx="4" dy="4"/>
<feGaussianBlur stdDeviation="35"/>
<feColorMatrix type="matrix" values="0 0 0 0 1 0 0 0 0 1 0 0 0 0 1 0 0 0 0.25 0"/>
<feBlend mode="normal" in2="BackgroundImageFix" result="effect1_dropShadow"/>
<feBlend mode="normal" in="SourceGraphic" in2="effect1_dropShadow" result="shape"/>
</filter>
<clipPath id="clip0">
<rect width="730" height="185" fill="white"/>
</clipPath>
</defs>
</svg>
